<svg xmlns="http://www.w3.org/2000/svg" width="1320" height="480" viewBox="0 0 1320 480">
  <rect width="1320" height="480" fill="white"/>

  <text x="660" y="24" text-anchor="middle" font-family="DejaVu Sans, sans-serif" font-size="15">My CUDA matmul performance journey so far</text>

  <line x1="66" y1="45" x2="66" y2="390" stroke="black"/>
  <line x1="66" y1="390" x2="1290" y2="390" stroke="black"/>

  <g font-family="DejaVu Sans, sans-serif" font-size="11" text-anchor="end">
    <text x="58" y="394">0</text>
    <text x="58" y="325">1000</text>
    <text x="58" y="256">2000</text>
    <text x="58" y="187">3000</text>
    <text x="58" y="118">4000</text>
    <text x="58" y="49">5000</text>
  </g>

  <g stroke="#dddddd">
    <line x1="66" y1="321" x2="1290" y2="321"/>
    <line x1="66" y1="252" x2="1290" y2="252"/>
    <line x1="66" y1="183" x2="1290" y2="183"/>
    <line x1="66" y1="114" x2="1290" y2="114"/>
    <line x1="66" y1="45" x2="1290" y2="45"/>
  </g>

  <text x="17" y="218" text-anchor="middle" font-family="DejaVu Sans, sans-serif" font-size="11" transform="rotate(-90 17 218)">Performance (GFLOP/s)</text>

  <g fill="#4c78a8">
    <rect x="84" y="365.4" width="72" height="24.6"/>
    <rect x="194" y="376.5" width="72" height="13.5"/>
    <rect x="304" y="357.6" width="72" height="32.4"/>
    <rect x="414" y="344.9" width="72" height="45.1"/>
    <rect x="524" y="225.7" width="72" height="164.3"/>
    <rect x="634" y="184.3" width="72" height="205.7"/>
    <rect x="744" y="212.3" width="72" height="177.7"/>
    <rect x="854" y="131.3" width="72" height="258.7"/>
    <rect x="964" y="122.0" width="72" height="268.0"/>
    <rect x="1074" y="117.7" width="72" height="272.3"/>
  </g>

  <rect x="1184" y="70.5" width="72" height="319.5" fill="#f28e2b"/>

  <line x1="830" y1="45" x2="830" y2="390" stroke="#777777" stroke-dasharray="5 5"/>
  <text x="822" y="220" text-anchor="middle" font-family="DejaVu Sans, sans-serif" font-size="10" fill="#555555" transform="rotate(-90 822 220)">matrix size changed</text>

  <g font-family="DejaVu Sans, sans-serif" font-size="10" text-anchor="middle">
    <text x="120" y="359">355.9</text>
    <text x="230" y="370">195.1</text>
    <text x="340" y="351">470.0</text>
    <text x="450" y="338">654.1</text>
    <text x="560" y="219">2381.6</text>
    <text x="670" y="178">2981.6</text>
    <text x="780" y="206">2575</text>
    <text x="890" y="125">3750</text>
    <text x="1000" y="116">3884</text>
    <text x="1110" y="111">3946</text>
    <text x="1220" y="64">4630</text>

    <text x="120" y="407">Naïve</text>
    <text x="120" y="421">matmul</text>

    <text x="230" y="407">1D tiled</text>
    <text x="230" y="421">baseline</text>

    <text x="340" y="407">Padded</text>
    <text x="340" y="421">shared</text>

    <text x="450" y="407">Coalesced</text>
    <text x="450" y="421">B loads</text>

    <text x="560" y="407">4x4 block</text>
    <text x="560" y="421">tiling</text>

    <text x="670" y="407">4x4 +</text>
    <text x="670" y="421">float4</text>

    <text x="780" y="407">First 8x8</text>
    <text x="780" y="421">thread tile</text>

    <text x="890" y="407">float4</text>
    <text x="890" y="421">C stores</text>

    <text x="1000" y="407">Double</text>
    <text x="1000" y="421">buffering</text>

    <text x="1110" y="407">Final custom</text>
    <text x="1110" y="421">median</text>

    <text x="1220" y="407">cuBLAS</text>
    <text x="1220" y="421">median</text>
  </g>

  <g font-family="DejaVu Sans, sans-serif" font-size="10">
    <rect x="1030" y="440" width="12" height="12" fill="#4c78a8"/>
    <text x="1048" y="450">My kernels</text>
    <rect x="1135" y="440" width="12" height="12" fill="#f28e2b"/>
    <text x="1153" y="450">cuBLAS reference</text>
  </g>

  <text x="660" y="470" text-anchor="middle" font-family="DejaVu Sans, sans-serif" font-size="9">Recorded on an NVIDIA T4 in Google Colab; selected milestones use different matrix shapes and timing loops as described in the README</text>
</svg>
