<svg xmlns="http://www.w3.org/2000/svg" width="1120" height="480" viewBox="0 0 1120 480">
  <rect width="1120" height="480" fill="white"/>

  <text x="560" y="24" text-anchor="middle" font-family="DejaVu Sans, sans-serif" font-size="15">My tensor core performance so far</text>

  <line x1="66" y1="45" x2="66" y2="390" stroke="black"/>
  <line x1="66" y1="390" x2="1090" y2="390" stroke="black"/>

  <g font-family="DejaVu Sans, sans-serif" font-size="11" text-anchor="end">
    <text x="58" y="394">0</text>
    <text x="58" y="336">5000</text>
    <text x="58" y="279">10000</text>
    <text x="58" y="221">15000</text>
    <text x="58" y="164">20000</text>
    <text x="58" y="106">25000</text>
    <text x="58" y="49">30000</text>
  </g>

  <g stroke="#dddddd">
    <line x1="66" y1="332.5" x2="1090" y2="332.5"/>
    <line x1="66" y1="275" x2="1090" y2="275"/>
    <line x1="66" y1="217.5" x2="1090" y2="217.5"/>
    <line x1="66" y1="160" x2="1090" y2="160"/>
    <line x1="66" y1="102.5" x2="1090" y2="102.5"/>
    <line x1="66" y1="45" x2="1090" y2="45"/>
  </g>

  <text x="17" y="218" text-anchor="middle" font-family="DejaVu Sans, sans-serif" font-size="11" transform="rotate(-90 17 218)">Performance (GFLOP/s)</text>

  <g fill="#59a14f">
    <rect x="86" y="386.1" width="72" height="3.9"/>
    <rect x="199" y="380.6" width="72" height="9.4"/>
    <rect x="312" y="372.6" width="72" height="17.4"/>
    <rect x="425" y="325.1" width="72" height="64.9"/>
    <rect x="538" y="299.1" width="72" height="90.9"/>
    <rect x="651" y="248.9" width="72" height="141.1"/>
    <rect x="764" y="228.7" width="72" height="161.3"/>
    <rect x="877" y="203.0" width="72" height="187.0"/>
  </g>

  <rect x="990" y="99.0" width="72" height="291.0" fill="#f28e2b"/>

  <g font-family="DejaVu Sans, sans-serif" font-size="10" text-anchor="middle">
    <text x="122" y="378">342</text>
    <text x="235" y="374">818</text>
    <text x="348" y="366">1516</text>
    <text x="461" y="319">5641</text>
    <text x="574" y="293">7906</text>
    <text x="687" y="243">12269</text>
    <text x="800" y="223">14027</text>
    <text x="913" y="197">16257</text>
    <text x="1026" y="93">25304</text>

    <text x="122" y="407">First</text>
    <text x="122" y="421">WMMA</text>

    <text x="235" y="407">Fixed</text>
    <text x="235" y="421">loads</text>

    <text x="348" y="407">One</text>
    <text x="348" y="421">warp</text>

    <text x="461" y="407">2D</text>
    <text x="461" y="421">tiled</text>

    <text x="574" y="407">Shared</text>
    <text x="574" y="421">padding</text>

    <text x="687" y="407">Register</text>
    <text x="687" y="421">loads</text>

    <text x="800" y="407">Half</text>
    <text x="800" y="421">inputs</text>

    <text x="913" y="407">Bank</text>
    <text x="913" y="421">fix</text>

    <text x="1026" y="407">cuBLAS</text>
    <text x="1026" y="421">latest</text>
  </g>

  <g font-family="DejaVu Sans, sans-serif" font-size="10">
    <rect x="840" y="440" width="12" height="12" fill="#59a14f"/>
    <text x="858" y="450">My kernels</text>
    <rect x="945" y="440" width="12" height="12" fill="#f28e2b"/>
    <text x="963" y="450">cuBLAS reference</text>
  </g>

  <text x="560" y="470" text-anchor="middle" font-family="DejaVu Sans, sans-serif" font-size="9">Recorded on an NVIDIA T4 in Google Colab; bars use the median where available</text>
</svg>
